<svg width="96" height="21" viewBox="0 0 96 21" fill="none"
    xmlns="http://www.w3.org/2000/svg">
    <path d="M7.73075 16.16L10.6348 6.608H15.0028L10.2508 20H5.18675L0.43475 6.608H4.82675L7.73075 16.16ZM18.7942 5.216C18.0742 5.216 17.4822 5.008 17.0182 4.592C16.5702 4.16 16.3462 3.632 16.3462 3.008C16.3462 2.368 16.5702 1.84 17.0182 1.424C17.4822 0.991999 18.0742 0.775999 18.7942 0.775999C19.4982 0.775999 20.0742 0.991999 20.5222 1.424C20.9862 1.84 21.2182 2.368 21.2182 3.008C21.2182 3.632 20.9862 4.16 20.5222 4.592C20.0742 5.008 19.4982 5.216 18.7942 5.216ZM20.8342 6.608V20H16.7302V6.608H20.8342ZM22.9923 13.28C22.9923 11.904 23.2483 10.696 23.7603 9.656C24.2883 8.616 25.0003 7.816 25.8963 7.256C26.7923 6.696 27.7923 6.416 28.8963 6.416C29.8403 6.416 30.6643 6.608 31.3683 6.992C32.0883 7.376 32.6403 7.88 33.0243 8.504V6.608H37.1283V20H33.0243V18.104C32.6243 18.728 32.0643 19.232 31.3443 19.616C30.6403 20 29.8163 20.192 28.8723 20.192C27.7843 20.192 26.7923 19.912 25.8963 19.352C25.0003 18.776 24.2883 17.968 23.7603 16.928C23.2483 15.872 22.9923 14.656 22.9923 13.28ZM33.0243 13.304C33.0243 12.28 32.7363 11.472 32.1603 10.88C31.6003 10.288 30.9123 9.992 30.0963 9.992C29.2803 9.992 28.5843 10.288 28.0083 10.88C27.4483 11.456 27.1683 12.256 27.1683 13.28C27.1683 14.304 27.4483 15.12 28.0083 15.728C28.5843 16.32 29.2803 16.616 30.0963 16.616C30.9123 16.616 31.6003 16.32 32.1603 15.728C32.7363 15.136 33.0243 14.328 33.0243 13.304ZM44.2014 2.24V20H40.0974V2.24H44.2014ZM59.7995 13.088C59.7995 13.472 59.7755 13.872 59.7275 14.288H50.4395C50.5035 15.12 50.7675 15.76 51.2315 16.208C51.7115 16.64 52.2955 16.856 52.9835 16.856C54.0075 16.856 54.7195 16.424 55.1195 15.56H59.4875C59.2635 16.44 58.8555 17.232 58.2635 17.936C57.6875 18.64 56.9595 19.192 56.0795 19.592C55.1995 19.992 54.2155 20.192 53.1275 20.192C51.8155 20.192 50.6475 19.912 49.6235 19.352C48.5995 18.792 47.7995 17.992 47.2235 16.952C46.6475 15.912 46.3595 14.696 46.3595 13.304C46.3595 11.912 46.6395 10.696 47.1995 9.656C47.7755 8.616 48.5755 7.816 49.5995 7.256C50.6235 6.696 51.7995 6.416 53.1275 6.416C54.4235 6.416 55.5755 6.688 56.5835 7.232C57.5915 7.776 58.3755 8.552 58.9355 9.56C59.5115 10.568 59.7995 11.744 59.7995 13.088ZM55.5995 12.008C55.5995 11.304 55.3595 10.744 54.8795 10.328C54.3995 9.912 53.7995 9.704 53.0795 9.704C52.3915 9.704 51.8075 9.904 51.3275 10.304C50.8635 10.704 50.5755 11.272 50.4635 12.008H55.5995ZM66.0686 8.84C66.5486 8.104 67.1486 7.528 67.8686 7.112C68.5886 6.68 69.3886 6.464 70.2686 6.464V10.808H69.1406C68.1166 10.808 67.3486 11.032 66.8366 11.48C66.3246 11.912 66.0686 12.68 66.0686 13.784V20H61.9646V6.608H66.0686V8.84ZM79.6942 16.52V20H77.6062C76.1182 20 74.9582 19.64 74.1262 18.92C73.2942 18.184 72.8782 16.992 72.8782 15.344V10.016H71.2462V6.608H72.8782V3.344H76.9822V6.608H79.6702V10.016H76.9822V15.392C76.9822 15.792 77.0782 16.08 77.2702 16.256C77.4622 16.432 77.7822 16.52 78.2302 16.52H79.6942ZM81.1642 13.28C81.1642 11.904 81.4202 10.696 81.9322 9.656C82.4602 8.616 83.1722 7.816 84.0682 7.256C84.9642 6.696 85.9642 6.416 87.0682 6.416C88.0122 6.416 88.8362 6.608 89.5402 6.992C90.2602 7.376 90.8122 7.88 91.1962 8.504V6.608H95.3002V20H91.1962V18.104C90.7962 18.728 90.2362 19.232 89.5162 19.616C88.8122 20 87.9882 20.192 87.0442 20.192C85.9562 20.192 84.9642 19.912 84.0682 19.352C83.1722 18.776 82.4602 17.968 81.9322 16.928C81.4202 15.872 81.1642 14.656 81.1642 13.28ZM91.1962 13.304C91.1962 12.28 90.9082 11.472 90.3322 10.88C89.7722 10.288 89.0842 9.992 88.2682 9.992C87.4522 9.992 86.7562 10.288 86.1802 10.88C85.6202 11.456 85.3402 12.256 85.3402 13.28C85.3402 14.304 85.6202 15.12 86.1802 15.728C86.7562 16.32 87.4522 16.616 88.2682 16.616C89.0842 16.616 89.7722 16.32 90.3322 15.728C90.9082 15.136 91.1962 14.328 91.1962 13.304Z" fill="black"/>
</svg>
